<svg width="64" height="64" xmlns="http://www.w3.org/2000/svg">
  <defs>
    <linearGradient id="cloudGrad" x1="0%" y1="0%" x2="100%" y2="100%">
      <stop offset="0%" style="stop-color:#2563eb;stop-opacity:1" />
      <stop offset="100%" style="stop-color:#1d4ed8;stop-opacity:1" />
    </linearGradient>
    <linearGradient id="cartGrad" x1="0%" y1="0%" x2="100%" y2="100%">
      <stop offset="0%" style="stop-color:#10b981;stop-opacity:1" />
      <stop offset="100%" style="stop-color:#059669;stop-opacity:1" />
    </linearGradient>
  </defs>
  
  <!-- Background Circle -->
  <circle cx="32" cy="32" r="30" fill="url(#cloudGradient)" stroke="#1e40af" stroke-width="2"/>
  
  <!-- Cloud Shape -->
  <path d="M 20 40 Q 15 35 15 30 Q 15 25 20 25 Q 22 20 28 20 Q 32 18 36 20 Q 42 18 46 22 Q 50 20 54 24 Q 58 22 58 28 Q 58 32 54 36 L 20 36 Z" 
        fill="#ffffff" opacity="0.3"/>
  
  <!-- Shopping Cart -->
  <g transform="translate(18, 22)">
    <rect x="6" y="10" width="14" height="10" rx="1" fill="url(#cartGrad)"/>
    <path d="M 6 10 L 4 6 L 2 6 L 2 4 L 4 4 L 6 8" fill="url(#cartGrad)"/>
    <circle cx="9" cy="22" r="1.5" fill="#1f2937"/>
    <circle cx="17" cy="22" r="1.5" fill="#1f2937"/>
    <circle cx="10" cy="14" r="1" fill="#ffffff"/>
    <circle cx="16" cy="14" r="1" fill="#ffffff"/>
  </g>
</svg>

