<svg width="48" height="48" xmlns="http://www.w3.org/2000/svg">
  <defs>
    <linearGradient id="iconCloudGrad" x1="0%" y1="0%" x2="100%" y2="100%">
      <stop offset="0%" style="stop-color:#2563eb;stop-opacity:1" />
      <stop offset="100%" style="stop-color:#1d4ed8;stop-opacity:1" />
    </linearGradient>
    <linearGradient id="iconCartGrad" x1="0%" y1="0%" x2="100%" y2="100%">
      <stop offset="0%" style="stop-color:#10b981;stop-opacity:1" />
      <stop offset="100%" style="stop-color:#059669;stop-opacity:1" />
    </linearGradient>
  </defs>
  
  <!-- Cloud Background -->
  <path d="M 8 28 Q 4 24 4 20 Q 4 15 9 15 Q 11 10 18 10 Q 22 7 26 10 Q 32 8 38 12 Q 44 10 48 15 Q 52 13 52 20 Q 52 24 48 28 L 8 28 Z" 
        fill="url(#iconCloudGrad)" stroke="#1e40af" stroke-width="1.5"/>
  
  <!-- Shopping Cart -->
  <g transform="translate(14, 14)">
    <rect x="5" y="8" width="12" height="8" rx="1" fill="url(#iconCartGrad)"/>
    <path d="M 5 8 L 3 5 L 1 5 L 1 3 L 3 3 L 5 7" fill="url(#iconCartGrad)"/>
    <circle cx="7" cy="18" r="1.2" fill="#1f2937"/>
    <circle cx="15" cy="18" r="1.2" fill="#1f2937"/>
    <circle cx="8" cy="12" r="0.8" fill="#ffffff"/>
    <circle cx="14" cy="12" r="0.8" fill="#ffffff"/>
  </g>
</svg>

